<svg width="20" height="20" viewBox="0 0 20 20" fill="none" xmlns="http://www.w3.org/2000/svg">
<g clip-path="url(#clip0)">
<path d="M16.8751 1.25009C16.3778 1.25009 15.9009 1.44763 15.5493 1.79926C15.1976 2.15089 15.0001 2.62781 15.0001 3.12509C15.0001 3.62237 15.1976 4.09928 15.5493 4.45091C15.9009 4.80254 16.3778 5.00009 16.8751 5.00009C17.3724 5.00009 17.8493 4.80254 18.2009 4.45091C18.5525 4.09928 18.7501 3.62237 18.7501 3.12509C18.7501 2.62781 18.5525 2.15089 18.2009 1.79926C17.8493 1.44763 17.3724 1.25009 16.8751 1.25009ZM13.7501 3.12509C13.75 2.39188 14.0077 1.68198 14.4782 1.1196C14.9486 0.55722 15.6018 0.178167 16.3235 0.0487587C17.0452 -0.0806492 17.7895 0.0478291 18.426 0.411715C19.0625 0.775602 19.5509 1.35172 19.8055 2.03928C20.0602 2.72685 20.065 3.48206 19.8191 4.1728C19.5732 4.86354 19.0922 5.44582 18.4603 5.81777C17.8285 6.18971 17.0859 6.32763 16.3627 6.2074C15.6394 6.08717 14.9814 5.71645 14.5038 5.16009L6.10634 9.06009C6.29939 9.67189 6.29939 10.3283 6.10634 10.9401L14.5038 14.8401C15.0086 14.253 15.7134 13.8742 16.4816 13.7772C17.2497 13.6801 18.0266 13.8716 18.6616 14.3147C19.2965 14.7578 19.7444 15.4208 19.9184 16.1752C20.0924 16.9297 19.9801 17.7219 19.6033 18.3983C19.2265 19.0747 18.612 19.5871 17.8789 19.8363C17.1458 20.0854 16.3464 20.0536 15.6354 19.7469C14.9245 19.4401 14.3528 18.8804 14.031 18.1762C13.7092 17.4719 13.6603 16.6733 13.8938 15.9351L5.49634 12.0351C5.08063 12.5196 4.52653 12.8651 3.90856 13.0252C3.2906 13.1853 2.63842 13.1523 2.03976 12.9307C1.4411 12.709 0.924682 12.3094 0.559972 11.7854C0.195261 11.2615 -0.000244141 10.6385 -0.000244141 10.0001C-0.000244141 9.36172 0.195261 8.73866 0.559972 8.21473C0.924682 7.6908 1.4411 7.29113 2.03976 7.06949C2.63842 6.84785 3.2906 6.81487 3.90856 6.97498C4.52653 7.13509 5.08063 7.48062 5.49634 7.96509L13.8938 4.06509C13.7982 3.76092 13.7498 3.44392 13.7501 3.12509V3.12509ZM3.12509 8.12509C2.62781 8.12509 2.15089 8.32263 1.79926 8.67426C1.44763 9.02589 1.25009 9.50281 1.25009 10.0001C1.25009 10.4974 1.44763 10.9743 1.79926 11.3259C2.15089 11.6775 2.62781 11.8751 3.12509 11.8751C3.62237 11.8751 4.09928 11.6775 4.45091 11.3259C4.80254 10.9743 5.00009 10.4974 5.00009 10.0001C5.00009 9.50281 4.80254 9.02589 4.45091 8.67426C4.09928 8.32263 3.62237 8.12509 3.12509 8.12509ZM16.8751 15.0001C16.3778 15.0001 15.9009 15.1976 15.5493 15.5493C15.1976 15.9009 15.0001 16.3778 15.0001 16.8751C15.0001 17.3724 15.1976 17.8493 15.5493 18.2009C15.9009 18.5525 16.3778 18.7501 16.8751 18.7501C17.3724 18.7501 17.8493 18.5525 18.2009 18.2009C18.5525 17.8493 18.7501 17.3724 18.7501 16.8751C18.7501 16.3778 18.5525 15.9009 18.2009 15.5493C17.8493 15.1976 17.3724 15.0001 16.8751 15.0001Z" fill="black"/>
</g>
<defs>
<clipPath id="clip0">
<rect width="20" height="20" fill="white"/>
</clipPath>
</defs>
</svg>
